<?xml version="1.0" encoding="UTF-8" standalone="no"?>
<!-- Created with Inkscape (http://www.inkscape.org/) -->

<svg
   width="64"
   height="64"
   viewBox="0 0 16.933333 16.933334"
   version="1.1"
   id="svg8446"
   xmlns="http://www.w3.org/2000/svg"
   xmlns:svg="http://www.w3.org/2000/svg">
  <defs
     id="defs8443" />
  <g
     id="g66644"
     transform="matrix(0.48662289,0,0,0.5809317,-0.89080125,0.17052049)">
    <path
       style="fill:none;stroke:#000000;stroke-width:0.264583px;stroke-linecap:butt;stroke-linejoin:miter;stroke-opacity:1"
       d="M 31.887483,12.275543 C 32.728668,9.0767431 33.678348,5.8956231 33.773829,2.5753113 30.017395,2.492537 27.435633,3.7522952 24.666974,4.7984487 20.573133,3.6662329 16.585837,3.6406884 12.790689,5.6109531 10.13105,4.6863309 7.618254,3.2189481 4.701454,3.244846 c 0.429125,3.0072881 1.727953,6.0145771 2.725456,9.021865 -0.766002,1.966976 -1.94114,3.65138 -1.909892,6.16898 2.168259,2.5871 4.943511,4.270983 7.933777,5.634923 3.467932,4.912932 5.756889,2.408128 8.370692,0.126841 l 1.673764,-1.91866 c 3.164386,-1.282553 6.518564,-0.711123 9.469287,-4.080838 0.918702,-1.974138 -0.565072,-3.948276 -1.077055,-5.922414 z"
       id="path8955-9" />
    <path
       style="fill:none;stroke:#000000;stroke-width:0.264583px;stroke-linecap:butt;stroke-linejoin:miter;stroke-opacity:1"
       d="M 30.460601,11.276458 C 31.840973,8.8419891 32.19364,6.4075201 33.026866,3.9730513 31.655463,5.4704872 30.29007,6.8751191 28.8808,8.5812091 c 0.718203,0.68973 1.074755,1.7733569 1.579801,2.6952489 z"
       id="path10453-1" />
    <path
       style="fill:none;stroke:#000000;stroke-width:0.264583px;stroke-linecap:butt;stroke-linejoin:miter;stroke-opacity:1"
       d="M 7.799917,11.150311 C 8.276347,10.156915 8.66652,9.8028421 9.055635,9.4566161 7.999183,7.2556081 6.94273,6.4083001 5.886278,5.0273085 6.35529,6.9818311 6.756909,8.9018401 7.799917,11.150311 Z"
       id="path12635-2" />
    <path
       style="fill:none;stroke:#000000;stroke-width:0.264583px;stroke-linecap:butt;stroke-linejoin:miter;stroke-opacity:1"
       d="m 13.450795,24.070614 c 4.204623,-5.7794 6.045685,-1.830315 8.370692,0.126841"
       id="path12993-7" />
    <path
       style="fill:none;stroke:#000000;stroke-width:0.264583px;stroke-linecap:butt;stroke-linejoin:miter;stroke-opacity:1"
       d="m 24.228197,14.533187 c -2.157708,1.474017 -3.916874,3.08868 -3.802832,5.3644"
       id="path13427-0" />
    <path
       style="fill:none;stroke:#000000;stroke-width:0.264583px;stroke-linecap:butt;stroke-linejoin:miter;stroke-opacity:1"
       d="M 14.676692,20.28574 C 13.570457,16.328748 12.607988,16.399638 11.656507,15.077882"
       id="path13633-9" />
    <path
       style="fill:#000000;fill-opacity:1;fill-rule:evenodd"
       id="path13904-3"
       d="m 18.661503,24.957128 a 0.34403685,0.33605385 0 0 1 0.35713,0.321775 0.34403685,0.33605385 0 0 1 -0.328415,0.349744 0.34403685,0.33605385 0 0 1 -0.358973,-0.319812 0.34403685,0.33605385 0 0 1 0.326401,-0.351539 l 0.01725,0.335631 z" />
    <path
       style="fill:#000000;fill-opacity:1;fill-rule:evenodd"
       id="path13904-2-6"
       d="m 16.237275,24.992912 a 0.34403685,0.33605385 0 0 1 0.35713,0.321775 0.34403685,0.33605385 0 0 1 -0.328416,0.349744 0.34403685,0.33605385 0 0 1 -0.358973,-0.319812 0.34403685,0.33605385 0 0 1 0.326401,-0.351539 l 0.01725,0.335631 z" />
    <path
       style="fill:#d3c549;fill-opacity:1;stroke:#d3c549;stroke-width:0.136374;stroke-linecap:square;stroke-dasharray:0.136374, 0.136374;stroke-opacity:1"
       d="m 20.603787,22.755836 c -1.511102,-1.471078 -2.154391,-1.847401 -3.160363,-1.848814 -0.983502,-0.0014 -1.621166,0.332563 -2.718824,1.42384 -0.469612,0.466882 -0.963959,0.999805 -1.098553,1.184275 L 13.381334,23.850539 12.1886,23.242447 C 9.8644393,22.057519 8.0655399,20.789752 6.5793134,19.289325 l -0.8796641,-0.888069 0.055375,-0.774148 c 0.069427,-0.970595 0.3898988,-1.981107 1.2218652,-3.852787 L 7.6297447,12.305588 7.4303468,11.712453 C 7.3206796,11.386229 6.8675296,10.073917 6.42335,8.7962041 5.658918,6.5972645 5.1459375,4.8355345 4.986802,3.8626621 L 4.91555,3.4270638 5.6450367,3.4887278 c 1.133871,0.095847 2.4370929,0.4797544 4.8792023,1.4373294 l 2.248715,0.8817443 0.712978,-0.3249147 c 1.896692,-0.8643508 3.678102,-1.234073 5.934609,-1.2316981 1.659885,0.00175 2.32564,0.075885 4.075276,0.4538205 l 1.208458,0.2610361 1.856076,-0.6969411 C 29.351322,3.2211187 31.276345,2.768023 32.943993,2.7665773 l 0.672187,-5.821e-4 -0.06009,0.6178494 c -0.215598,2.2169107 -0.531635,3.8419759 -1.359757,6.9919214 l -0.50623,1.925556 0.323308,0.891837 c 1.01215,2.791986 1.026062,2.8407 1.030253,3.607528 0.0053,0.975095 -0.179351,1.349344 -1.025038,2.077203 -1.471137,1.26617 -2.718745,1.786061 -5.925315,2.469138 -0.516522,0.110032 -1.331068,0.319452 -1.810102,0.465379 l -0.870974,0.265323 -0.799108,0.921713 c -0.43951,0.506942 -0.80382,0.92002 -0.809577,0.917951 -0.0057,-0.0021 -0.545653,-0.524769 -1.199766,-1.161558 z m -5.823733,-2.521082 c 0.135133,-0.352159 -0.874107,-2.770704 -1.500876,-3.596698 -0.573045,-0.755191 -1.522328,-1.722997 -1.62673,-1.658473 -0.200075,0.123653 -0.05577,0.362953 0.738728,1.22504 0.899012,0.975492 1.342062,1.74802 1.789186,3.119734 0.141783,0.434966 0.276421,0.846454 0.299196,0.914417 0.05404,0.16124 0.238022,0.158778 0.300496,-0.004 z m 5.858517,-0.975757 c 0.207672,-1.399213 1.092949,-2.635646 2.799602,-3.910098 0.819957,-0.612309 0.971886,-0.803479 0.708355,-0.891322 -0.173116,-0.05771 -1.619797,1.090254 -2.372338,1.882487 -0.915639,0.96393 -1.39831,1.912324 -1.482138,2.912248 -0.05035,0.600556 -0.03586,0.714608 0.09077,0.714608 0.111191,0 0.178213,-0.185516 0.255751,-0.707923 z m 10.282725,-8.460961 c 0.209917,-0.421373 0.499049,-1.0775294 0.642509,-1.4581245 0.366691,-0.9728195 1.638519,-5.3216082 1.582732,-5.4118732 -0.02537,-0.041046 -0.09911,-0.074426 -0.163859,-0.074177 -0.143791,5.556e-4 -2.805348,2.8939871 -4.202639,4.5687837 -0.126442,0.1515541 -0.107585,0.2092946 0.172558,0.5283626 0.172985,0.197018 0.567069,0.8655774 0.875745,1.4856884 0.308673,0.62011 0.594987,1.127473 0.636254,1.127473 0.04126,0 0.246779,-0.34476 0.4567,-0.766133 z M 8.1422294,10.914007 C 8.3005349,10.611047 8.6230752,10.164571 8.858983,9.9218389 L 9.287907,9.4805076 9.0777537,9.0642138 C 8.2230702,7.3711697 5.7289995,4.3726833 5.7289995,5.0381852 c 0,0.2621682 0.6064758,2.6166691 0.9387726,3.6445658 0.4016219,1.242341 1.0229908,2.782691 1.1223736,2.782327 0.03534,-1.28e-4 0.1937782,-0.248111 0.3520837,-0.551071 z"
       id="path50042-0" />
    <path
       style="fill:#f1e6bb;fill-opacity:1;stroke:#f1e6bb;stroke-width:0.136374;stroke-linecap:square;stroke-dasharray:0.136374, 0.136374;stroke-opacity:1"
       d="m 16.099943,26.373783 c -0.644816,-0.320905 -1.964695,-1.542351 -2.25458,-2.086449 -0.1324,-0.248507 -0.114374,-0.288215 0.436512,-0.961561 1.102363,-1.347418 2.208408,-2.073726 3.157929,-2.073726 0.819468,0 1.41187,0.365616 2.836415,1.750566 l 1.251101,1.216327 -0.756822,0.654722 c -2.083176,1.802135 -3.28685,2.188739 -4.670555,1.500121 z m 0.487879,-0.96425 c 0.04402,-0.311833 -0.232542,-0.532836 -0.492609,-0.393652 -0.180954,0.09684 -0.251741,0.48519 -0.113615,0.623316 0.03875,0.03874 0.183322,0.05728 0.321284,0.04119 0.180305,-0.02103 0.260426,-0.09719 0.28494,-0.270854 z m 2.330294,0.160925 c 0.210002,-0.153556 0.177768,-0.446702 -0.066,-0.600213 -0.342527,-0.215707 -0.728231,0.270362 -0.465625,0.586783 0.147715,0.177985 0.301273,0.181864 0.53162,0.01344 z"
       id="path69501-6" />
    <path
       style="fill:#f1e6bb;fill-opacity:1;stroke:#f1e6bb;stroke-width:0.054968;stroke-linecap:square;stroke-dasharray:0.054968, 0.054968;stroke-opacity:1"
       d="M 7.6212833,10.35312 C 7.1521718,9.2408692 6.7756859,8.050648 6.3787212,6.4248741 6.2820035,6.0287656 6.2067939,5.7009837 6.2115889,5.6964699 6.2255748,5.6833042 7.3151657,6.9805264 7.5505681,7.2906014 7.9820797,7.8589936 8.4989988,8.6829614 8.80187,9.2851763 L 8.8612663,9.4032757 8.5568447,9.7295779 C 8.3894137,9.9090442 8.1511273,10.219279 8.0273208,10.41899 L 7.8022133,10.7821 Z"
       id="path75503-2" />
    <path
       style="fill:#f1e6bb;fill-opacity:1;stroke:#f1e6bb;stroke-width:0.054968;stroke-linecap:square;stroke-dasharray:0.054968, 0.054968;stroke-opacity:1"
       d="M 30.018336,10.053283 C 29.782934,9.587785 29.496046,9.0830757 29.38081,8.9317075 29.265573,8.7803397 29.154554,8.6341614 29.134096,8.6068669 c -0.04009,-0.053498 2.33e-4,-0.1041701 0.918832,-1.1546141 0.724188,-0.8281284 2.528604,-2.7776127 2.550581,-2.7556367 0.02537,0.025363 -0.82727,2.9953886 -1.060321,3.6934748 -0.106084,0.3177675 -0.267306,0.7660288 -0.358269,0.9961361 -0.184486,0.4666893 -0.679654,1.514324 -0.715489,1.513772 -0.0127,-1.99e-4 -0.215689,-0.381217 -0.451094,-0.846716 z"
       id="path75542-6" />
  </g>
</svg>
